<?xml version="1.0" encoding="UTF-8"?>
<svg version="1.1" xmlns="http://www.w3.org/2000/svg" width="48" height="48">
<path d="M0 0 C15.84 0 31.68 0 48 0 C48 15.84 48 31.68 48 48 C32.16 48 16.32 48 0 48 C0 32.16 0 16.32 0 0 Z " fill="#02B6CC" transform="translate(0,0)"/>
<path d="M0 0 C1.51400391 0.01740234 1.51400391 0.01740234 3.05859375 0.03515625 C4.07050781 0.04417969 5.08242188 0.05320312 6.125 0.0625 C7.29869141 0.07990234 7.29869141 0.07990234 8.49609375 0.09765625 C8.49609375 1.74765625 8.49609375 3.39765625 8.49609375 5.09765625 C9.48609375 5.09765625 10.47609375 5.09765625 11.49609375 5.09765625 C11.49609375 3.44765625 11.49609375 1.79765625 11.49609375 0.09765625 C11.82609375 0.09765625 12.15609375 0.09765625 12.49609375 0.09765625 C12.49609375 2.07765625 12.49609375 4.05765625 12.49609375 6.09765625 C10.51609375 7.08765625 10.51609375 7.08765625 8.49609375 8.09765625 C8.49609375 8.75765625 8.49609375 9.41765625 8.49609375 10.09765625 C7.50609375 10.09765625 6.51609375 10.09765625 5.49609375 10.09765625 C5.49609375 9.10765625 5.49609375 8.11765625 5.49609375 7.09765625 C5.16609375 8.08765625 4.83609375 9.07765625 4.49609375 10.09765625 C3.83609375 10.09765625 3.17609375 10.09765625 2.49609375 10.09765625 C2.49609375 8.77765625 2.49609375 7.45765625 2.49609375 6.09765625 C1.71234375 6.30390625 0.92859375 6.51015625 0.12109375 6.72265625 C-0.74515625 6.84640625 -1.61140625 6.97015625 -2.50390625 7.09765625 C-3.16390625 6.43765625 -3.82390625 5.77765625 -4.50390625 5.09765625 C-3.75371603 0.14640078 -3.75371603 0.14640078 0 0 Z " fill="#62C6D2" transform="translate(31.50390625,20.90234375)"/>
<path d="M0 0 C2 2 2 2 2.1875 5.4375 C2 9 2 9 1 12 C0.34 12 -0.32 12 -1 12 C-1.33 11.01 -1.66 10.02 -2 9 C-2.78375 9.04125 -3.5675 9.0825 -4.375 9.125 C-7 9 -7 9 -9 7 C-8.46428571 3.46428571 -8.46428571 3.46428571 -7 2 C-5.33382885 1.95936168 -3.66611905 1.957279 -2 2 C-1.67 2.66 -1.34 3.32 -1 4 C-0.67 2.68 -0.34 1.36 0 0 Z " fill="#65C7D3" transform="translate(24,19)"/>
<path d="M0 0 C1.9375 0.3125 1.9375 0.3125 4 1 C5.1092904 4.32787119 5.01557588 5.6993784 4 9 C3.01 9.66 2.02 10.32 1 11 C1 11.66 1 12.32 1 13 C0.01 13 -0.98 13 -2 13 C-2 12.01 -2 11.02 -2 10 C-2.99 9.67 -3.98 9.34 -5 9 C-5 6 -5 6 -4 3 C-1.9375 2.3125 -1.9375 2.3125 0 2 C0 1.34 0 0.68 0 0 Z " fill="#50C0CD" transform="translate(9,18)"/>
<path d="M0 0 C2.51083114 1.25541557 2.87125446 2.50063488 4 5 C5.65 5 7.3 5 9 5 C9 6.32 9 7.64 9 9 C5.66666667 9 2.33333333 9 -1 9 C-0.67 6.03 -0.34 3.06 0 0 Z " fill="#22B6C9" transform="translate(13,22)"/>
<path d="M0 0 C1.32 0 2.64 0 4 0 C5 3 5 3 4.0625 5.1875 C3.5365625 6.0846875 3.5365625 6.0846875 3 7 C1.68 6.67 0.36 6.34 -1 6 C-1.625 4.125 -1.625 4.125 -2 2 C-1.34 1.34 -0.68 0.68 0 0 Z " fill="#86CED7" transform="translate(29,21)"/>
<path d="M0 0 C1.32 0.33 2.64 0.66 4 1 C5.09658936 4.28976808 4.79953138 5.71303767 4 9 C3.34 7.68 2.68 6.36 2 5 C1.34 6.32 0.68 7.64 0 9 C0 6.03 0 3.06 0 0 Z " fill="#83D1DA" transform="translate(9,18)"/>
<path d="M0 0 C0.33 0 0.66 0 1 0 C1.33 3.3 1.66 6.6 2 10 C1.34 10 0.68 10 0 10 C-0.12375 9.071875 -0.12375 9.071875 -0.25 8.125 C-0.81258459 5.81562433 -0.81258459 5.81562433 -3.0625 4.75 C-3.701875 4.5025 -4.34125 4.255 -5 4 C-4.360625 3.71125 -3.72125 3.4225 -3.0625 3.125 C-0.84793921 2.17176549 -0.84793921 2.17176549 0 0 Z " fill="#26B6C9" transform="translate(34,21)"/>
</svg>
